2.8Hzhigh3min_grf.mot
version=1
nRows=12
nColumns 19
inDegrees=yes
endheader
time	1_ground_force_vx	1_ground_force_vy	1_ground_force_vz	1_ground_force_px	1_ground_force_py	1_ground_force_pz	1_ground_torque_x	1_ground_torque_y	1_ground_torque_z	2_ground_force_vx	2_ground_force_vy	2_ground_force_vz	2_ground_force_px	2_ground_force_py	2_ground_force_pz	2_ground_torque_x	2_ground_torque_y	2_ground_torque_z
            3.751500	           -6.056028	          436.530217	          -23.334732	           -0.283693	            0.006445	           -0.459307	           -0.006035	            0.434989	           -0.023252	           14.791785	          357.389855	           29.331523	           -0.285846	            0.005515	           -0.715509	            0.030937	            0.747472	            0.061346
            3.752000	           -3.582312	          443.922344	          -23.492609	           -0.284056	            0.006442	           -0.458537	           -0.003735	            0.462892	           -0.024496	           16.690922	          363.471836	           29.868598	           -0.285988	            0.005516	           -0.715873	            0.034468	            0.750597	            0.061681
            3.752500	           -1.384465	          450.775224	          -24.018968	           -0.284044	            0.006443	           -0.458863	           -0.001319	            0.429598	           -0.022891	           18.360465	          368.263926	           30.401173	           -0.286387	            0.005514	           -0.715749	            0.042403	            0.850498	            0.070211
            3.753000	            0.904123	          457.809991	          -24.911630	           -0.284004	            0.006444	           -0.459093	            0.000766	            0.387908	           -0.021108	           20.310524	          373.240502	           31.121999	           -0.286642	            0.005513	           -0.715637	            0.050071	            0.920148	            0.076725
            3.753500	            2.549868	          465.567208	          -26.166454	           -0.283897	            0.006443	           -0.458751	            0.002228	            0.406730	           -0.022860	           22.162834	          379.322208	           31.706022	           -0.286581	            0.005513	           -0.715624	            0.057920	            0.991322	            0.082861
            3.754000	            4.471162	          471.882021	          -27.336432	           -0.284503	            0.006443	           -0.458871	            0.005250	            0.554069	           -0.032098	           24.108220	          385.587998	           32.384518	           -0.286986	            0.005512	           -0.715618	            0.066304	            1.060467	            0.089066
            3.754500	            5.659486	          479.096810	          -28.225590	           -0.284247	            0.006445	           -0.459366	            0.007509	            0.635652	           -0.037449	           25.678308	          392.035235	           33.439256	           -0.287071	            0.005512	           -0.715945	            0.060657	            0.926065	            0.078990
            3.755000	            7.078341	          487.210386	          -28.515326	           -0.284261	            0.006444	           -0.459064	            0.011519	            0.792882	           -0.046406	           27.110218	          397.747746	           33.834432	           -0.287416	            0.005510	           -0.715554	            0.061431	            0.901280	            0.076667
            3.755500	            7.809407	          494.242885	          -28.945560	           -0.284286	            0.006444	           -0.459049	            0.011182	            0.707684	           -0.041446	           27.838877	          403.640521	           34.605989	           -0.287495	            0.005509	           -0.715373	            0.060476	            0.876856	            0.075177
            3.756000	            8.723761	          502.356756	          -29.325755	           -0.284735	            0.006444	           -0.458998	            0.012449	            0.716867	           -0.041848	           28.002638	          410.268225	           35.286557	           -0.287541	            0.005510	           -0.715803	            0.066298	            0.971329	            0.083543
            3.756500	            9.087643	          509.930541	          -29.890332	           -0.284842	            0.006446	           -0.459628	            0.011192	            0.628037	           -0.036813	           28.539143	          417.450145	           35.828152	           -0.287425	            0.005510	           -0.715696	            0.074194	            1.085262	            0.093144
            3.757000	            9.587244	          519.309566	          -31.043643	           -0.284404	            0.006446	           -0.459426	            0.013301	            0.720461	           -0.043068	           28.796707	          424.077350	           36.743321	           -0.287430	            0.005510	           -0.715663	            0.080859	            1.190782	            0.103173
